/* XPM */
static char * winff_xpm[] = {
"48 48 18 1",
" 	c None",
".	c #B64C18",
"+	c #1C18B6",
"@	c #73355D",
"#	c #5A2D77",
"$	c #A1452D",
"%	c #552B7C",
"&	c #5E2E72",
"*	c #693267",
"=	c #572C79",
"-	c #783757",
";	c #783758",
">	c #6C3364",
",	c #44268C",
"'	c #45268C",
")	c #64306C",
"!	c #33209E",
"~	c #412490",
"                                                ",
"                                                ",
"                             ..                 ",
".......  .......     ......  ...                ",
" ....     .....        ...   ..                 ",
"  ...      ...         ..                       ",
"  ...       ...        .                        ",
"   ..       ...        .                        ",
"   ...      ...       ..                        ",
"   ...       ...      .       ..     ..   ...   ",
"    ...     ....      .     ....   .... ......  ",
"    ...     ....     ..    .....  .......   ... ",
"    ...     . ...    .       ...    ...     ... ",
"     ...   .  ...    .       ...    ...     ... ",
"     ...   .  ...   ..       ...    ...     ... ",
"     ...   .   ...  .        ...    ...     ... ",
"      ... .    ...  .        ...    ...     ... ",
"  ++++++++++++++++++++    ++++++++++++++++++++@ ",
"     +++++++++++++++++       +++++++++++++++++@ ",
"     ++++#      ..$%++       &++++  ...    +++* ",
"      +++=       ..  +       -++++  ...     ;+> ",
"      +++,       ..  ++      -++++  ...     .') ",
"      +++!       ..   +    ..-+++~....... ...-#.",
"      ++++                    ++++              ",
"      ++++                    ++++              ",
"      ++++        +           ++++        +     ",
"      ++++        +           ++++        +     ",
"      ++++        +           ++++        +     ",
"      ++++       ++           ++++       ++     ",
"      +++++++++++++           +++++++++++++     ",
"      +++++++++++++           +++++++++++++     ",
"      ++++       ++           ++++       ++     ",
"      ++++        +           ++++        +     ",
"      ++++        +           ++++        +     ",
"      ++++        +           ++++        +     ",
"      ++++                    ++++              ",
"      ++++                    ++++              ",
"      ++++                    ++++              ",
"      ++++                    ++++              ",
"      ++++                    ++++              ",
"      ++++                    ++++              ",
"      ++++                    ++++              ",
"     +++++                   +++++              ",
"     ++++++                  ++++++             ",
"  ++++++++++++            ++++++++++++          ",
"                                                ",
"                                                ",
"                                                "};
