/* XPM */
static char * add_xpm[] = {
"24 24 158 2",
"  	c None",
". 	c #4A8338",
"+ 	c #629847",
"@ 	c #5F9644",
"# 	c #5E9542",
"$ 	c #5D9442",
"% 	c #4C8438",
"& 	c #699F4C",
"* 	c #80B753",
"= 	c #7AB44C",
"- 	c #77B247",
"; 	c #76B047",
"> 	c #689F48",
", 	c #6DA64C",
"' 	c #7FBD4D",
") 	c #7ABA45",
"! 	c #76B841",
"~ 	c #75B640",
"{ 	c #6AA446",
"] 	c #70AC4C",
"^ 	c #80C24A",
"/ 	c #7BC044",
"( 	c #77BE3F",
"_ 	c #76BC3E",
": 	c #6BA945",
"< 	c #14580F",
"[ 	c #75B34D",
"} 	c #81C847",
"| 	c #7CC641",
"1 	c #79C43D",
"2 	c #77C13B",
"3 	c #6FAF45",
"4 	c #155810",
"5 	c #3C782E",
"6 	c #6FA551",
"7 	c #72AB50",
"8 	c #72AE4E",
"9 	c #75B34E",
"0 	c #88CC54",
"a 	c #80CE43",
"b 	c #7ECE3E",
"c 	c #7BCB3A",
"d 	c #77C737",
"e 	c #7CC445",
"f 	c #69AB3F",
"g 	c #64A43C",
"h 	c #609E3A",
"i 	c #5C973A",
"j 	c #367426",
"k 	c #4B8538",
"l 	c #82BA57",
"m 	c #83C150",
"n 	c #83C64D",
"o 	c #83CB4A",
"p 	c #82D044",
"q 	c #81D340",
"r 	c #80D43C",
"s 	c #7CD138",
"t 	c #77CB34",
"u 	c #73C531",
"v 	c #6DBC2D",
"w 	c #66B329",
"x 	c #60AA25",
"y 	c #5EA12A",
"z 	c #407D2A",
"A 	c #4A8536",
"B 	c #7FB852",
"C 	c #7FC04B",
"D 	c #80C548",
"E 	c #80CB45",
"F 	c #81D241",
"G 	c #82D83D",
"H 	c #80DB37",
"I 	c #78D52E",
"J 	c #70CC27",
"K 	c #69C321",
"L 	c #61B81B",
"M 	c #5BAE18",
"N 	c #56A515",
"O 	c #559C1E",
"P 	c #3E7C28",
"Q 	c #4A8435",
"R 	c #7DB750",
"S 	c #7CBF47",
"T 	c #7BC340",
"U 	c #6CD11B",
"V 	c #69D512",
"W 	c #63CF0C",
"X 	c #5EC60A",
"Y 	c #59BD09",
"Z 	c #54B208",
"` 	c #4FA908",
" .	c #4BA007",
"..	c #4E9814",
"+.	c #3C7B25",
"@.	c #4A8436",
"#.	c #7AB54B",
"$.	c #6EB733",
"%.	c #65B822",
"&.	c #5FBC15",
"*.	c #5DC30C",
"=.	c #5EC80A",
"-.	c #60CB0A",
";.	c #5FC80A",
">.	c #5CC20A",
",.	c #59BA0A",
"'.	c #56B20B",
").	c #51A90B",
"!.	c #4DA00A",
"~.	c #509816",
"{.	c #3D7B26",
"].	c #3A772B",
"^.	c #629E3F",
"/.	c #5CA030",
"(.	c #5BA42D",
"_.	c #5FAA2D",
":.	c #69C026",
"<.	c #5CC00A",
"[.	c #5CC30A",
"}.	c #5BC00A",
"|.	c #59BC0A",
"1.	c #67BB26",
"2.	c #5CA62D",
"3.	c #589E2B",
"4.	c #56992B",
"5.	c #54922F",
"6.	c #347324",
"7.	c #155811",
"8.	c #58B70C",
"9.	c #56B709",
"0.	c #56B609",
"a.	c #56B40B",
"b.	c #5EA82D",
"c.	c #165912",
"d.	c #5AA22C",
"e.	c #55AF0C",
"f.	c #52AE08",
"g.	c #52AD08",
"h.	c #52AC0B",
"i.	c #59A12C",
"j.	c #569B2B",
"k.	c #51A60C",
"l.	c #4EA508",
"m.	c #4EA408",
"n.	c #4FA30B",
"o.	c #579B2B",
"p.	c #53932D",
"q.	c #509E12",
"r.	c #4C9C0D",
"s.	c #4C9B0D",
"t.	c #4E9B10",
"u.	c #54952D",
"v.	c #407E29",
"w.	c #4C8C29",
"x.	c #4A8B26",
"y.	c #498A26",
"z.	c #4A8A28",
"A.	c #43802B",
"                                                ",
"                                                ",
"                                                ",
"                                                ",
"                  . + @ # $ %                   ",
"                  & * = - ; >                   ",
"                  , ' ) ! ~ {                   ",
"                  ] ^ / ( _ :                   ",
"                < [ } | 1 2 3 4                 ",
"        5 6 7 8 9 0 a b c d e f g h i j         ",
"        k l m n o p q r s t u v w x y z         ",
"        A B C D E F G H I J K L M N O P         ",
"        Q R S T d J U V W X Y Z `  ...+.        ",
"        @.#.$.%.&.*.=.-.;.>.,.'.).!.~.{.        ",
"        ].^./.(._.:.<.[.}.|.1.2.3.4.5.6.        ",
"                7._.8.9.0.a.b.c.                ",
"                  d.e.f.g.h.i.                  ",
"                  j.k.l.m.n.o.                  ",
"                  p.q.r.s.t.u.                  ",
"                  v.w.x.y.z.A.                  ",
"                                                ",
"                                                ",
"                                                ",
"                                                "};
