/* XPM */
static char * gtk_preferences_xpm[] = {
"24 24 179 2",
"  	c None",
". 	c #C0C0BF",
"+ 	c #C0C0C0",
"@ 	c #C1C1C0",
"# 	c #C2C2C2",
"$ 	c #C4C4C4",
"% 	c #C5C5C4",
"& 	c #C6C6C6",
"* 	c #C3C3C3",
"= 	c #C3C3C2",
"- 	c #C2C2C0",
"; 	c #D2D2CE",
"> 	c #D3D3D0",
", 	c #D4D4D1",
"' 	c #D6D6D2",
") 	c #D8D8D5",
"! 	c #D7D7D5",
"~ 	c #D9D9D8",
"{ 	c #DFDFDE",
"] 	c #E2E2E0",
"^ 	c #E4E4E3",
"/ 	c #E5E5E5",
"( 	c #E5E5E4",
"_ 	c #E0E0DF",
": 	c #DBDBDA",
"< 	c #E2E2E1",
"[ 	c #E1E1E0",
"} 	c #DEDEDC",
"| 	c #DBDBD9",
"1 	c #CBCBC8",
"2 	c #C8C8C3",
"3 	c #C4C4C0",
"4 	c #D8D8D4",
"5 	c #DBDBD6",
"6 	c #DEDEDA",
"7 	c #DDDDDA",
"8 	c #E0E0DE",
"9 	c #EAEAE7",
"0 	c #ECECEA",
"a 	c #F0F0EE",
"b 	c #F2F2F1",
"c 	c #F1F1F0",
"d 	c #EEEEEC",
"e 	c #E8E8E5",
"f 	c #E4E4E1",
"g 	c #D3D3CF",
"h 	c #C8C8C4",
"i 	c #CDCDC9",
"j 	c #C9C9C5",
"k 	c #C6C6C1",
"l 	c #C2C2BE",
"m 	c #D9D9D4",
"n 	c #DFDFDB",
"o 	c #DDDDDB",
"p 	c #F2F2F0",
"q 	c #D1D1CE",
"r 	c #C5C6C1",
"s 	c #CBCBC7",
"t 	c #C7C7C4",
"u 	c #D3D3CE",
"v 	c #D5D5D1",
"w 	c #E9E9E7",
"x 	c #EFEFEE",
"y 	c #F1F1EF",
"z 	c #D9D9D5",
"A 	c #CACAC6",
"B 	c #C6C6C2",
"C 	c #D7D7D2",
"D 	c #DBDBD7",
"E 	c #E1E1DE",
"F 	c #EDEDEB",
"G 	c #EFEFED",
"H 	c #EDEDEA",
"I 	c #E0E0DC",
"J 	c #DADAD6",
"K 	c #C5C5C1",
"L 	c #D6D6D1",
"M 	c #ECECEB",
"N 	c #F0F0EF",
"O 	c #C4C4C1",
"P 	c #E8E8E7",
"Q 	c #DDDDDC",
"R 	c #EAEAE9",
"S 	c #EBEBE9",
"T 	c #E5E5E3",
"U 	c #E3E3E0",
"V 	c #C7C7C3",
"W 	c #C3C3BF",
"X 	c #D4D4CE",
"Y 	c #A3A3A2",
"Z 	c #9C9C9B",
"` 	c #D7D7D4",
" .	c #E8E8E6",
"..	c #CACAC9",
"+.	c #BABABA",
"@.	c #B5B5B4",
"#.	c #AAAAA9",
"$.	c #B9B9B7",
"%.	c #BFBFBF",
"&.	c #B0B0AF",
"*.	c #E7E7E5",
"=.	c #C7C7C6",
"-.	c #D8D8D8",
";.	c #B6B6B6",
">.	c #EAEAE8",
",.	c #B8B8B8",
"'.	c #CCCCCC",
").	c #BBBBB9",
"!.	c #DDDDD9",
"~.	c #BEBEBA",
"{.	c #A7A7A7",
"].	c #999999",
"^.	c #D0D0CC",
"/.	c #BEBEBD",
"(.	c #B4B4B4",
"_.	c #E9E9E8",
":.	c #ADADAC",
"<.	c #AFAFAE",
"[.	c #AFAFAD",
"}.	c #DBDBD8",
"|.	c #C1C1BD",
"1.	c #C2C2BF",
"2.	c #ACACAC",
"3.	c #BDBDBA",
"4.	c #DCDCDA",
"5.	c #C9C9C9",
"6.	c #B3B3B3",
"7.	c #BBBBBA",
"8.	c #D1D1D1",
"9.	c #A8A8A6",
"0.	c #A1A1A0",
"a.	c #AEAEAB",
"b.	c #DADAD7",
"c.	c #C6C6C5",
"d.	c #BCBCBB",
"e.	c #B4B4B3",
"f.	c #EBEBEA",
"g.	c #BFBFBD",
"h.	c #989897",
"i.	c #CACAC7",
"j.	c #D1D1CC",
"k.	c #BEBEBB",
"l.	c #999997",
"m.	c #B0B0AD",
"n.	c #D8D8D6",
"o.	c #E9E9E6",
"p.	c #B3B3B2",
"q.	c #C9C9C6",
"r.	c #CDCDCA",
"s.	c #DCDCD9",
"t.	c #E0E0DD",
"u.	c #DEDEDB",
"v.	c #D4D4CF",
"w.	c #CCCCC8",
"x.	c #D2D3CF",
"y.	c #C3C3C0",
"z.	c #C3C4BF",
"A.	c #DCDCD8",
"B.	c #DFDFDC",
"C.	c #EBEBE8",
"D.	c #EDEDEC",
"E.	c #E6E6E3",
"F.	c #D2D2CF",
"G.	c #C8C8C5",
"H.	c #A3A3A1",
"I.	c #ACACAB",
"J.	c #B2B2B1",
"K.	c #B4B4B2",
"L.	c #B6B6B4",
"M.	c #B7B7B6",
"N.	c #BDBDBC",
"O.	c #BFBFBE",
"P.	c #BCBCBC",
"Q.	c #BEBEBE",
"R.	c #BCBCBA",
"S.	c #BABAB8",
"T.	c #B7B7B5",
"U.	c #B2B2B0",
"V.	c #A7A7A5",
"                                                ",
"      . + @ @ @ # $ % & & & * + $ $ = - .       ",
"    ; > , ' ) ! ~ { ] ^ / ( _ : < [ } | ) '     ",
"  1 2 3 4 5 6 7 8 9 0 a b c 0 ( d 0 e f g h i   ",
"  j k l m 5 n o 8 9 0 a p c 0 ( d 0 e f q r s   ",
"  t u v m 5 n 7 8 w 0 x p y 0 ( d 0 e f n z A   ",
"  B g C m D n 7 E 9 F a p c 0 ( G H e f I J j   ",
"  K g L m D n 7 8 9 M N p c 0 ( d 0 e f I J h   ",
"  O g L C z 6 7 8 9 P Q R c 0 ( d S T U I J V   ",
"  W X W Y Z ` o E  ...& +.S M ( S @.#.$.7 J B   ",
"  l X W %.&., o 8 *.=.-.;. .M ( >.,.'.).!.J B   ",
"  l u ~.{.].^.o 8 *./.(.{.P M ( _.:.<.[.}.J V   ",
"  |.u 1.& 2.3.4.8 *.% 5.6.>.M ( P 7.8.9.> J h   ",
"  l X O @ 0.a.b.E e c.d.e.f.M ( >.g.$ h.i.5 j   ",
"  W u j.k.l.m.n.8 o.] : [ a M ( d 4.p.Z q.J q.  ",
"  3 g L C r., s.8 w 0 N b y 0 ( d H t., D J i.  ",
"  K g ' m D u.7 8 9 0 x p y 0 ( d 0 e U I 5 1   ",
"  B v.' m D n 7 8 9 0 a p c 0 ( d 0 e f t.D w.  ",
"  t 2 K 4 5 n 7 8 9 0 a p c 0 ( d 0 e f x.h i   ",
"  y.V z.J A.I B.] C.d c b b D.*.a d 9 E.F.V G.  ",
"  H.I.&.J.K.L.L.M.7.N.O.. %.P.,.Q./.R.S.T.U.V.  ",
"                                                ",
"                                                ",
"                                                "};
