/* XPM */
static char * gtk_remove_xpm[] = {
"24 24 95 2",
"  	c None",
". 	c #762020",
"+ 	c #7F2A2A",
"@ 	c #822B2B",
"# 	c #832B2B",
"$ 	c #842A2A",
"% 	c #862A2A",
"& 	c #862929",
"* 	c #862828",
"= 	c #862727",
"- 	c #852626",
"; 	c #832626",
"> 	c #812525",
", 	c #7F2424",
"' 	c #7D2424",
") 	c #7A2222",
"! 	c #731C1C",
"~ 	c #893232",
"{ 	c #B55757",
"] 	c #BB5454",
"^ 	c #C05151",
"/ 	c #C54E4E",
"( 	c #C94B4B",
"_ 	c #CC4848",
": 	c #CD4545",
"< 	c #CA4141",
"[ 	c #C63E3E",
"} 	c #C03B3B",
"| 	c #B83737",
"1 	c #B03333",
"2 	c #A93030",
"3 	c #A03131",
"4 	c #822626",
"5 	c #8D3333",
"6 	c #B95252",
"7 	c #C04C4C",
"8 	c #C54848",
"9 	c #CB4545",
"0 	c #D24242",
"a 	c #D73D3D",
"b 	c #DA3737",
"c 	c #D52F2F",
"d 	c #CC2929",
"e 	c #C32323",
"f 	c #B81E1E",
"g 	c #AF1B1B",
"h 	c #A61818",
"i 	c #9D1E1E",
"j 	c #832323",
"k 	c #8C3232",
"l 	c #B74E4E",
"m 	c #BE4444",
"n 	c #C23C3C",
"o 	c #C63030",
"p 	c #CB2121",
"q 	c #D01818",
"r 	c #D41010",
"s 	c #CE0C0C",
"t 	c #C60A0A",
"u 	c #BD0909",
"v 	c #B20808",
"w 	c #A90808",
"x 	c #A00707",
"y 	c #981111",
"z 	c #812020",
"A 	c #882F2F",
"B 	c #B04848",
"C 	c #B13434",
"D 	c #B32626",
"E 	c #B71E1E",
"F 	c #BE1A1A",
"G 	c #C31A1A",
"H 	c #C61B1B",
"I 	c #C31B1B",
"J 	c #B71A1A",
"K 	c #AF1A1A",
"L 	c #A81919",
"M 	c #A01919",
"N 	c #992020",
"O 	c #7F2121",
"P 	c #751E1E",
"Q 	c #7D2323",
"R 	c #7E2020",
"S 	c #801F1F",
"T 	c #811F1F",
"U 	c #841F1F",
"V 	c #851F1F",
"W 	c #852020",
"X 	c #831F1F",
"Y 	c #821F1F",
"Z 	c #7F1F1F",
"` 	c #7D1E1E",
" .	c #7C1E1E",
"..	c #781F1F",
"+.	c #711A1A",
"                                                ",
"                                                ",
"                                                ",
"                                                ",
"                                                ",
"                                                ",
"                                                ",
"                                                ",
"                                                ",
"        . + @ # $ % & * = - ; > , ' ) !         ",
"        ~ { ] ^ / ( _ : < [ } | 1 2 3 4         ",
"        5 6 7 8 9 0 a b c d e f g h i j         ",
"        k l m n o p q r s t u v w x y z         ",
"        A B C D E F G H I F J K L M N O         ",
"        P Q R S T U V W V X Y Z `  ...+.        ",
"                                                ",
"                                                ",
"                                                ",
"                                                ",
"                                                ",
"                                                ",
"                                                ",
"                                                ",
"                                                "};
