/* XPM */
static char * winff_xpm[] = {
"32 32 319 2",
"  	c None",
". 	c #666666",
"+ 	c #636669",
"@ 	c #60676C",
"# 	c #5E686F",
"$ 	c #5C6871",
"% 	c #5A6974",
"& 	c #586A77",
"* 	c #566A79",
"= 	c #546A7C",
"- 	c #516B7E",
"; 	c #506C80",
"> 	c #4F6D82",
", 	c #4E6F83",
"' 	c #4D7085",
") 	c #4C7187",
"! 	c #4B7289",
"~ 	c #4A748A",
"{ 	c #49758C",
"] 	c #48768E",
"^ 	c #47788F",
"/ 	c #467991",
"( 	c #457A93",
"_ 	c #447C95",
": 	c #437D96",
"< 	c #427E98",
"[ 	c #417F9A",
"} 	c #477C91",
"| 	c #636668",
"1 	c #5E676E",
"2 	c #596974",
"3 	c #546A7A",
"4 	c #4F6B80",
"5 	c #4A6C86",
"6 	c #456E8C",
"7 	c #416F91",
"8 	c #3C7097",
"9 	c #37719D",
"0 	c #3474A1",
"a 	c #3177A5",
"b 	c #2F7AA9",
"c 	c #2D7CAD",
"d 	c #2B7FB1",
"e 	c #2882B5",
"f 	c #56A0C8",
"g 	c #5BA6CE",
"h 	c #59A8D1",
"i 	c #57AAD3",
"j 	c #3A9FCF",
"k 	c #1A94CC",
"l 	c #4EAFDB",
"m 	c #199BD5",
"n 	c #139DD8",
"o 	c #43B4E3",
"p 	c #16A6E1",
"q 	c #447F96",
"r 	c #D7D7D7",
"s 	c #F1F1F1",
"t 	c #AED2E5",
"u 	c #92C4DE",
"v 	c #90C5E0",
"w 	c #8FC7E2",
"x 	c #83C3E1",
"y 	c #7EC5E5",
"z 	c #AEDCF0",
"A 	c #5FBDE5",
"B 	c #C6E8F7",
"C 	c #15A5E1",
"D 	c #3986A5",
"E 	c #E3E3E3",
"F 	c #FFFFFF",
"G 	c #78B3D3",
"H 	c #2488BD",
"I 	c #218BC1",
"J 	c #1F8EC4",
"K 	c #72BADD",
"L 	c #1897D0",
"M 	c #ABDBEF",
"N 	c #EFF8FC",
"O 	c #21A6DE",
"P 	c #0FA3E0",
"Q 	c #717171",
"R 	c #747474",
"S 	c #5BB5DE",
"T 	c #C8E7F5",
"U 	c #8BCFEC",
"V 	c #A5DBF2",
"W 	c #10A3E0",
"X 	c #C8DBE7",
"Y 	c #CCDEEA",
"Z 	c #C0D7E6",
"` 	c #91C1DC",
" .	c #76B5D6",
"..	c #75B7D8",
"+.	c #73B9DA",
"@.	c #6FB9DC",
"#.	c #6EBEE2",
"$.	c #25A0D7",
"%.	c #6BC4E9",
"&.	c #19A7E1",
"*.	c #B8B8B8",
"=.	c #CBCBCB",
"-.	c #2685B9",
";.	c #1D91C8",
">.	c #169AD4",
",.	c #11A0DC",
"'.	c #C4C5C5",
").	c #C5C6C7",
"!.	c #C4C6C9",
"~.	c #C3C7CA",
"{.	c #C2C7CB",
"].	c #C1C7CC",
"^.	c #C0C7CD",
"/.	c #BFC8CE",
"(.	c #BEC8CF",
"_.	c #BDC8D0",
":.	c #BDC9D1",
"<.	c #BCC9D2",
"[.	c #BCCAD2",
"}.	c #BBCAD3",
"|.	c #BBCAD4",
"1.	c #BBCBD4",
"2.	c #BACCD5",
"3.	c #BACCD6",
"4.	c #B9CDD7",
"5.	c #B9CED8",
"6.	c #B8CFD9",
"7.	c #B7CFDA",
"8.	c #B7D0DB",
"9.	c #B6D1DC",
"0.	c #90B0BD",
"a.	c #959595",
"b.	c #A0A0A0",
"c.	c #E7E7E7",
"d.	c #EAEAEA",
"e.	c #B3B5B7",
"f.	c #FBFBFB",
"g.	c #B3B3B3",
"h.	c #DBDDDE",
"i.	c #FEFEFE",
"j.	c #DED7D5",
"k.	c #FCFCFC",
"l.	c #8E9EA9",
"m.	c #708896",
"n.	c #FDFDFD",
"o.	c #C29F93",
"p.	c #B07051",
"q.	c #FAFAFA",
"r.	c #91A0AD",
"s.	c #3075A3",
"t.	c #688496",
"u.	c #C5A195",
"v.	c #F14D00",
"w.	c #B0734C",
"x.	c #F9F8F8",
"y.	c #3177A6",
"z.	c #2B7CAC",
"A.	c #628396",
"B.	c #F24D00",
"C.	c #F15E00",
"D.	c #B17848",
"E.	c #F7F6F5",
"F.	c #2C7DAE",
"G.	c #6DAACC",
"H.	c #7193A4",
"I.	c #DCD4D1",
"J.	c #BE5C2D",
"K.	c #F5A057",
"L.	c #C19869",
"M.	c #F4F3F1",
"N.	c #D3E6F0",
"O.	c #EDF5F9",
"P.	c #759AAC",
"Q.	c #D9D3D0",
"R.	c #BA6630",
"S.	c #FBD7B9",
"T.	c #FEFAF5",
"U.	c #C8A774",
"V.	c #F2F1EE",
"W.	c #F3F3F3",
"X.	c #D3D3D3",
"Y.	c #D2D3D3",
"Z.	c #D2D3D4",
"`.	c #7E8C98",
" +	c #2D7DAE",
".+	c #3D8FBC",
"++	c #DAEBF4",
"@+	c #F2F8FC",
"#+	c #769FB2",
"$+	c #DAD7D4",
"%+	c #BC7940",
"&+	c #FBE2C5",
"*+	c #FEFCF7",
"=+	c #CBB076",
"-+	c #EFEDEA",
";+	c #A3A3A3",
">+	c #545E65",
",+	c #4C606F",
"'+	c #436279",
")+	c #3A6584",
"!+	c #336A94",
"~+	c #2D7DAD",
"{+	c #2883B5",
"]+	c #3491C2",
"^+	c #D3E9F4",
"/+	c #F5FAFD",
"(+	c #79A4B7",
"_+	c #D8D6D4",
":+	c #BA8140",
"<+	c #FAE3BD",
"[+	c #FFFDFA",
"}+	c #CFBB7B",
"|+	c #ECEBE6",
"1+	c #A5A5A5",
"2+	c #5D686F",
"3+	c #546A7B",
"4+	c #406F92",
"5+	c #36719E",
"6+	c #2388BD",
"7+	c #2C95C8",
"8+	c #CBE7F3",
"9+	c #F9FCFE",
"0+	c #699EB5",
"a+	c #D8D8D6",
"b+	c #B58841",
"c+	c #F9E4B4",
"d+	c #FFFEFC",
"e+	c #CCBB6B",
"f+	c #E9E8E2",
"g+	c #CFCFCF",
"h+	c #E8E8E8",
"i+	c #5E676F",
"j+	c #36719D",
"k+	c #2499CE",
"l+	c #98D2EC",
"m+	c #46A2C8",
"n+	c #B9C6CD",
"o+	c #AD946D",
"p+	c #E7A105",
"q+	c #F5D87D",
"r+	c #D6BB38",
"s+	c #C8C4AB",
"t+	c #248DBA",
"u+	c #B0C2CA",
"v+	c #B69B7A",
"w+	c #E08A02",
"x+	c #ECA200",
"y+	c #D0A20E",
"z+	c #C5BFA1",
"A+	c #7D7D7D",
"B+	c #838383",
"C+	c #A8A8A8",
"D+	c #595E63",
"E+	c #52606A",
"F+	c #4C6172",
"G+	c #456379",
"H+	c #3D6787",
"I+	c #2688B6",
"J+	c #ADC0C8",
"K+	c #B7997F",
"L+	c #DF7B04",
"M+	c #ED9200",
"N+	c #D3940C",
"O+	c #C4BB9D",
"P+	c #96A4AF",
"Q+	c #2984B0",
"R+	c #AABDC5",
"S+	c #B89883",
"T+	c #DE6A05",
"U+	c #EF8100",
"V+	c #D7880A",
"W+	c #C1B497",
"X+	c #ACACAC",
"Y+	c #BCBCBC",
"Z+	c #3277A5",
"`+	c #2A7FAA",
" @	c #A7BAC3",
".@	c #B79686",
"+@	c #DC5B06",
"@@	c #F07100",
"#@	c #DA7908",
"$@	c #C0AF93",
"%@	c #3276A5",
"&@	c #2D7BA6",
"*@	c #A4B7C0",
"=@	c #C7B2AB",
"-@	c #DA4D08",
";@	c #F16000",
">@	c #DC6B06",
",@	c #BFA98D",
"'@	c #9D9D9D",
")@	c #A9A9A9",
"!@	c #3075A0",
"~@	c #A2B4BD",
"{@	c #BD9B8F",
"]@	c #F25000",
"^@	c #DF5D06",
"/@	c #BFA289",
"(@	c #33709A",
"_@	c #9FAFBA",
":@	c #E34E04",
"<@	c #BE9B84",
"[@	c #898989",
"}@	c #919191",
"|@	c #909BA5",
"1@	c #9CABB6",
"2@	c #B5978C",
"3@	c #BC927E",
"4@	c #C5C5C5",
"5@	c #F6F6F7",
"6@	c #EFEEEE",
"7@	c #D9D9D9",
"8@	c #BFBFBF",
"9@	c #D4D4D4",
"0@	c #CCCCCC",
"a@	c #E4E4E4",
"b@	c #7A7A7A",
"c@	c #A7A7A7",
"d@	c #9B9B9B",
"  . . . . + @ # $ % & * = - ; > , ' ) ! ~ { ] ^ / ( _ : < [ }   ",
". . . . | 1 2 3 4 5 6 7 8 9 0 a b c d e f g h i j k l m n o p q ",
". r s . | 1 2 3 4 5 6 7 8 9 0 a b c d e t u v w x k y z A B C D ",
". E F . | 1 2 3 4 5 6 7 8 9 0 a b c d e G H I J K k L M N O P D ",
". Q R . | 1 2 3 4 5 6 7 8 9 0 a b c d e G H I J K k S T U V W D ",
". . . . | 1 2 3 4 5 6 7 8 9 0 X Y Z d e `  ...+.@.k #.$.n %.&.D ",
". *.=.. | 1 2 3 4 5 6 7 8 9 0 a b c d e -.H I J ;.k L >.n ,.P D ",
". E F . '.).!.~.{.].^./.(._.:.<.[.}.|.1.2.3.4.4.5.6.6.7.8.9.9.0.",
". a.b.. c.d.d.d.d.d.d.d.d.d.d.d.d.d.d.d.d.d.d.d.d.d.d.d.d.d.d.e.",
". . . . f.F F F F F F F F F F F F F F F F F F F F F F F F F F g.",
". a.b.. f.F F F F F F F F h.i.F F F j.k.F F F F F F F F F F F g.",
". E F . f.F F F F F F F F l.m.n.F F o.p.q.F F F F F F F F F F g.",
". *.=.. f.F F F F F F F F r.s.t.k.F u.v.w.x.F F F F F F F F F g.",
". . . . f.F F F F F F F F r.y.z.A.q.u.B.C.D.E.F F F F F F F F g.",
". Q R . f.F F F F F F F F r.y.F.G.H.I.J.C.K.L.M.F F F F F F F g.",
". E F . f.F F F F F F F F r.y.F.N.O.P.Q.R.S.T.U.V.F F F F F F g.",
". r s . f.F F F W.X.X.Y.Z.`.y. +.+++@+#+$+%+&+*+=+-+F F F F F g.",
". . . . f.F F F ;+>+,+'+)+!+y.~+{+]+^+/+(+_+:+<+[+}+|+F F F F g.",
". . . . f.F F F 1+2+3+5 4+5+y.~+{+6+7+8+9+0+a+b+c+d+e+f+F F F g.",
". g+h+. f.F F F 1+i+3+5 4+j+y.~+e H J k+l+m+n+o+p+q+r+s+F F F g.",
". E F . f.F F F 1+i+3 5 4+9 a ~+e H J k t+u+v+w+x+y+z+F F F F g.",
". A+B+. f.F F F C+D+E+F+G+H+a c e H J I+J+K+L+M+N+O+F F F F F g.",
". . . . f.F F F F F F F F P+a c e H Q+R+S+T+U+V+W+F F F F F F g.",
". X+Y+. f.F F F F F F F F P+Z+c e `+ @.@+@@@#@$@F F F F F F F g.",
". E F . f.F F F F F F F F P+%@c &@*@=@-@;@>@,@F F F F F F F F g.",
". '@)@. f.F F F F F F F F P+%@!@~@F {@]@^@/@F F F F F F F F F g.",
". . . . f.F F F F F F F F P+(@_@F F {@:@<@F F F F F F F F F F g.",
". [@}@. i.F F F F F F F F |@1@F F F 2@3@F F F F F F F F F F F 4@",
". E F . F F F F F F F F F 5@F F F F 6@F F F F F F F F F F F F 7@",
". 8@9@. n.F F F F F F F F F F F F F F F F F F F F F F F F F F 0@",
". . . . a@F F F F F F F F F F F F F F F F F F F F F F F F F F b.",
"  . . . b@c@)@)@)@)@)@)@)@)@)@)@)@)@)@)@)@)@)@)@)@)@)@)@)@)@d@  "};
