/* XPM */
static char * winff32x32_xpm[] = {
"32 32 22 1",
" 	c None",
".	c #B64C18",
"+	c #1C18B6",
"@	c #4F2981",
"#	c #321F9F",
"$	c #42258E",
"%	c #63306E",
"&	c #2C1DA6",
"*	c #402491",
"=	c #221AB0",
"-	c #382199",
";	c #582C78",
">	c #A2452C",
",	c #6F3460",
"'	c #512A80",
")	c #36219B",
"!	c #3E2492",
"~	c #813A4E",
"{	c #3D2395",
"]	c #5A2D77",
"^	c #833B4D",
"/	c #241BAE",
"                                ",
"                                ",
"....  ....    .... ..           ",
" ..    ...     ..               ",
"  .     ..     .                ",
"  ..    ..     .                ",
"  ..    ...         .   ..  ..  ",
"   ..   ...   .   ...  ..... .. ",
"   ..    ..   .    ..   ..   .. ",
"   ..  . ..   .    ..   ..   .. ",
"    .. .  .. .     ..   ..   .. ",
"  ++@@##++@@+$    +$@#++@@+++$% ",
"   +++&+++#@*=+    #++++@@++++- ",
"    ++;    .> +    ,+++ ..   ') ",
"    ++!    .. +    ~++{ ..   .]^",
"    ++/             ++{         ",
"    +++             +++         ",
"    +++     +       +++     +   ",
"    +++     +       +++     +   ",
"    +++++++++       +++++++++   ",
"    +++++++++       +++++++++   ",
"    +++     +       +++     +   ",
"    +++     +       +++     +   ",
"    +++             +++         ",
"    +++             +++         ",
"    +++             +++         ",
"    +++             +++         ",
"    +++             +++         ",
"   ++++            ++++         ",
"  +++++++         +++++++       ",
"                                ",
"                                "};
