/* XPM */
static char * emptytrash_xpm[] = {
"24 24 124 2",
"  	c None",
". 	c #ABB6C0",
"+ 	c #ACB7C2",
"@ 	c #ADB7C2",
"# 	c #ACB7C1",
"$ 	c #ABB6C1",
"% 	c #AAB5C0",
"& 	c #AAB5BF",
"* 	c #A9B4BF",
"= 	c #A8B4BE",
"- 	c #A7B3BE",
"; 	c #86929D",
"> 	c #9CA9B4",
", 	c #A5B2BC",
"' 	c #A8B3BE",
") 	c #AEB9C3",
"! 	c #AFB9C3",
"~ 	c #97A3AF",
"{ 	c #5D6872",
"] 	c #7C8997",
"^ 	c #96A3B1",
"/ 	c #A5B1BC",
"( 	c #B4BEC7",
"_ 	c #BDC6CE",
": 	c #C2CAD2",
"< 	c #C9D0D6",
"[ 	c #CED5DB",
"} 	c #D4DADF",
"| 	c #DBE0E4",
"1 	c #D2D8DE",
"2 	c #BCC5CD",
"3 	c #84919E",
"4 	c #333A3D",
"5 	c #4E585F",
"6 	c #727E8B",
"7 	c #8E9AA8",
"8 	c #9FABB7",
"9 	c #B2BCC5",
"0 	c #C1C9D1",
"a 	c #CFD5DA",
"b 	c #DDE2E6",
"c 	c #E9ECEE",
"d 	c #F4F5F6",
"e 	c #EFF1F2",
"f 	c #D6DADF",
"g 	c #B5BDC4",
"h 	c #76828D",
"i 	c #384043",
"j 	c #535C63",
"k 	c #66717C",
"l 	c #7B8692",
"m 	c #89949E",
"n 	c #9CA5AD",
"o 	c #ACB3B9",
"p 	c #BABFC4",
"q 	c #C7CBCD",
"r 	c #D0D2D4",
"s 	c #D8D9DA",
"t 	c #D4D6D8",
"u 	c #C2C6CA",
"v 	c #A7AEB5",
"w 	c #76818C",
"x 	c #67717C",
"y 	c #727F8C",
"z 	c #8B98A6",
"A 	c #99A4B0",
"B 	c #A8B1BA",
"C 	c #B6BDC4",
"D 	c #C2C8CD",
"E 	c #CFD4D7",
"F 	c #DBDEE0",
"G 	c #E7E8E9",
"H 	c #E8EAEB",
"I 	c #D5DADE",
"J 	c #BAC2CA",
"K 	c #84909E",
"L 	c #6A7580",
"M 	c #74818F",
"N 	c #909EAC",
"O 	c #A1AEBA",
"P 	c #B2BCC6",
"Q 	c #C0C8D0",
"R 	c #CED4DA",
"S 	c #DCE1E5",
"T 	c #E8EBEE",
"U 	c #F5F6F7",
"V 	c #F3F4F6",
"W 	c #DADFE4",
"X 	c #84919D",
"Y 	c #F4F6F7",
"Z 	c #F2F4F6",
"` 	c #DADFE3",
" .	c #CDD4DA",
"..	c #E8EBED",
"+.	c #F2F4F5",
"@.	c #A1ADBA",
"#.	c #919EAC",
"$.	c #68727C",
"%.	c #758290",
"&.	c #DBE0E5",
"*.	c #BBC3CB",
"=.	c #7D8A95",
"-.	c #495157",
";.	c #65717C",
">.	c #8996A3",
",.	c #CED4DB",
"'.	c #DDE1E6",
").	c #B7BCC0",
"!.	c #646A6E",
"~.	c #353B3E",
"{.	c #2E3437",
"].	c #454D52",
"^.	c #5E676F",
"/.	c #707880",
"(.	c #929AA1",
"_.	c #A8AFB5",
":.	c #B9BEC3",
"<.	c #C6CACD",
"[.	c #CACDCF",
"}.	c #C7C9CA",
"|.	c #A8ABAD",
"1.	c #63686A",
"2.	c #363C3E",
"3.	c #2E3436",
"                                                ",
"                                                ",
"                                                ",
"            . + @ # $ % & * = = - -             ",
"          ; > , - ' = - - - ' . ) ! ~           ",
"          { ] ^ / ( _ : < [ } | 1 2 3           ",
"        4 5 6 7 8 9 0 a b c d e f g h           ",
"        i j k l m n o p q r s t u v w           ",
"          x y z A B C D E F G H I J K           ",
"          L M N O P Q R S T U V W 2 X           ",
"          L M N O P Q R S T Y Z ` 2 X           ",
"          L M N O P Q  .S ..Y +.` 2 X           ",
"          L M N @.P Q R S T Y Z ` 2 X           ",
"          L M #.O P Q R S T U Z ` 2 X           ",
"          L M N O P Q R S T Y Z ` 2 X           ",
"          L M N O P Q R S ..Y Z ` 2 X           ",
"          L M N O P Q R S T Y Z ` 2 X           ",
"          L M N O P Q R S T Y +.` 2 X           ",
"          L M N O P Q R S T Y Z ` 2 X           ",
"          L M N O P Q R S T Y +.` 2 3           ",
"          $.%.N O P Q R S T Y V &.*.=.          ",
"          -.;.>.8 P 0 ,.'.c U e ).!.~.{.        ",
"            ].^./.(._.:.<.[.}.|.1.2.3.          ",
"                                                "};
