/* XPM */
static char * media_playback_start_xpm[] = {
"24 24 227 2",
"  	c None",
". 	c #65D60A",
"+ 	c #63D009",
"@ 	c #5DC509",
"# 	c #52AD08",
"$ 	c #4A9D07",
"% 	c #489A07",
"& 	c #5CC309",
"* 	c #4FA707",
"= 	c #499807",
"- 	c #50A408",
"; 	c #55AD09",
"> 	c #56AF09",
", 	c #58BB09",
"' 	c #4CA007",
") 	c #4FA308",
"! 	c #55AE09",
"~ 	c #59BD09",
"{ 	c #4CA207",
"] 	c #52AA08",
"^ 	c #52A708",
"/ 	c #50A308",
"( 	c #55AE08",
"_ 	c #4FA708",
": 	c #52A908",
"< 	c #77B247",
"[ 	c #64A92A",
"} 	c #54A70D",
"| 	c #54AC09",
"1 	c #55B508",
"2 	c #4FA508",
"3 	c #B8D5A0",
"4 	c #CCE0BC",
"5 	c #93C36A",
"6 	c #5FAB1E",
"7 	c #54A90B",
"8 	c #57AE0B",
"9 	c #57B00B",
"0 	c #56AF0A",
"a 	c #5ABE09",
"b 	c #50AA07",
"c 	c #53AA08",
"d 	c #51A40B",
"e 	c #B7D49F",
"f 	c #EAECE8",
"g 	c #E3EADD",
"h 	c #C9E0B7",
"i 	c #78B941",
"j 	c #57A611",
"k 	c #5CAE12",
"l 	c #5CB110",
"m 	c #59B00D",
"n 	c #57AF0A",
"o 	c #58BA09",
"p 	c #56AE09",
"q 	c #5EB213",
"r 	c #5AA914",
"s 	c #B9D6A1",
"t 	c #E9EBE7",
"u 	c #EAEBE8",
"v 	c #E9EEE5",
"w 	c #BCDDA0",
"x 	c #7EBD48",
"y 	c #63B01E",
"z 	c #61B218",
"A 	c #5EB314",
"B 	c #5AB00E",
"C 	c #56AE0A",
"D 	c #56B508",
"E 	c #51A80A",
"F 	c #5BB10F",
"G 	c #60B415",
"H 	c #66B61C",
"I 	c #61AE1D",
"J 	c #BBD7A4",
"K 	c #ECEEEA",
"L 	c #ECEEEB",
"M 	c #EDEEEB",
"N 	c #EEF0ED",
"O 	c #DFEDD4",
"P 	c #A6D57E",
"Q 	c #77BF39",
"R 	c #65B31F",
"S 	c #61B317",
"T 	c #5CB111",
"U 	c #51A90A",
"V 	c #54B208",
"W 	c #55AC0C",
"X 	c #62B417",
"Y 	c #67B71E",
"Z 	c #6DBA25",
"` 	c #69B227",
" .	c #BEDAA7",
"..	c #EFF1EE",
"+.	c #EEEFEC",
"@.	c #E3E9DE",
"#.	c #D1E8BF",
"$.	c #90D457",
"%.	c #68B424",
"&.	c #63B41A",
"*.	c #56AD0D",
"=.	c #54B008",
"-.	c #58B10F",
";.	c #6AB820",
">.	c #6FBB28",
",.	c #76BE31",
"'.	c #73B831",
").	c #C0DBA9",
"!.	c #ECEDEA",
"~.	c #F0F2EF",
"{.	c #EDF0EC",
"].	c #D9EBCB",
"^.	c #B1DF89",
"/.	c #7DC73A",
"(.	c #72BA2E",
"_.	c #6BB922",
":.	c #54B009",
"<.	c #52AE08",
"[.	c #59B30F",
"}.	c #6EBB26",
"|.	c #76BE30",
"1.	c #7DC239",
"2.	c #7ABC3A",
"3.	c #C3DDAC",
"4.	c #F3F4F2",
"5.	c #F6F7F5",
"6.	c #F9FAF8",
"7.	c #ECF4E4",
"8.	c #C4E4A7",
"9.	c #98D262",
"0.	c #83C643",
"a.	c #7FC23C",
"b.	c #77BF32",
"c.	c #6EBB27",
"d.	c #59B310",
"e.	c #57B20D",
"f.	c #6DBC26",
"g.	c #7CC238",
"h.	c #84C541",
"i.	c #81C143",
"j.	c #C4DEAE",
"k.	c #F2F3F1",
"l.	c #F7F8F6",
"m.	c #D6ECC3",
"n.	c #A4D776",
"o.	c #99D15F",
"p.	c #91CC52",
"q.	c #8BC94B",
"r.	c #85C643",
"s.	c #6EBD27",
"t.	c #52AD09",
"u.	c #65BB1A",
"v.	c #80C43B",
"w.	c #8BC94A",
"x.	c #88C44B",
"y.	c #C5DEAE",
"z.	c #E7EBE3",
"A.	c #D8E8C9",
"B.	c #ADD887",
"C.	c #99D05F",
"D.	c #A6D66D",
"E.	c #9FD262",
"F.	c #98D05A",
"G.	c #93CD53",
"H.	c #8CC94C",
"I.	c #80C53D",
"J.	c #65BB1C",
"K.	c #58B20D",
"L.	c #75C32D",
"M.	c #90CC50",
"N.	c #8CC750",
"O.	c #B3D596",
"P.	c #B6D796",
"Q.	c #A4D373",
"R.	c #ABD874",
"S.	c #AEDA75",
"T.	c #AAD870",
"U.	c #A6D66B",
"V.	c #9FD362",
"W.	c #99D05B",
"X.	c #92CD52",
"Y.	c #75C42E",
"Z.	c #58B20E",
"`.	c #50A809",
" +	c #5CBA11",
".+	c #85CB40",
"++	c #97CD5D",
"@+	c #99CB67",
"#+	c #AAD776",
"$+	c #B2DC7C",
"%+	c #B5DE7D",
"&+	c #B5DE7C",
"*+	c #B2DC79",
"=+	c #ADDA73",
"-+	c #A5D66A",
";+	c #9ED261",
">+	c #86CC42",
",+	c #5DBA11",
"'+	c #4DA209",
")+	c #5CB811",
"!+	c #7FCC3A",
"~+	c #A0D763",
"{+	c #AFDC76",
"]+	c #B9E082",
"^+	c #BEE389",
"/+	c #BFE389",
"(+	c #BAE184",
"_+	c #B1DC78",
":+	c #9DD65E",
"<+	c #7DCB35",
"[+	c #5CB911",
"}+	c #4DA109",
"|+	c #53AD0C",
"1+	c #67BF1D",
"2+	c #85D23F",
"3+	c #98D955",
"4+	c #A3DE63",
"5+	c #A4DE64",
"6+	c #98DA56",
"7+	c #86D240",
"8+	c #4CA009",
"9+	c #50A60B",
"0+	c #59AF13",
"a+	c #60B619",
"b+	c #60B61A",
"c+	c #295704",
"d+	c #295604",
"                                                ",
"                  . . + + . .                   ",
"                @ # $ % % $ # @                 ",
"            & * = - ; > > ; - = * &             ",
"          , ' ) ! > > > > > > ! ) ' ,           ",
"        ~ { ] ^ / ( > > > > > > > ] { ~         ",
"        _ : > - < [ } | > > > > > > : _         ",
"      1 2 ! > ) 3 4 5 6 7 8 9 0 > > ! 2 1       ",
"    a b c > 0 d e f g h i j k l m n > c b a     ",
"    o 2 p m q r s t u u v w x y z A B C 2 o     ",
"    D E F G H I J K L M M N O P Q R S T U D     ",
"    V W X Y Z `  .......+.K t @.#.$.%.&.*.V     ",
"    =.-.;.>.,.'.).!.+...~...{.].^./.(._.-.:.    ",
"    <.[.}.|.1.2.3...4.5.6.7.8.9.0.a.b.c.d.<.    ",
"      e.f.g.h.i.j.N k.l.m.n.o.p.q.r.1.s.e.      ",
"      t.u.v.w.x.y.z.A.B.C.D.E.F.G.H.I.J.t.      ",
"        K.L.M.N.O.P.Q.R.S.T.U.V.W.X.Y.Z.        ",
"        `. +.+++@+#+$+%+&+*+=+-+;+>+,+`.        ",
"          '+)+!+~+{+]+^+/+(+_+:+<+[+'+          ",
"            }+|+1+2+3+4+5+6+7+1+|+}+            ",
"                8+9+0+a+b+0+9+8+                ",
"                      c+d+                      ",
"                                                ",
"                                                "};
