/* XPM */
static char * redo_xpm[] = {
"24 24 179 2",
"  	c None",
". 	c #5289AC",
"+ 	c #61A0C2",
"@ 	c #62A2C4",
"# 	c #1C517F",
"$ 	c #225A87",
"% 	c #245E8A",
"& 	c #255F8B",
"* 	c #306A94",
"= 	c #63A7C9",
"- 	c #74BFDE",
"; 	c #5E9EC0",
"> 	c #306994",
", 	c #3F7FA9",
"' 	c #478FB8",
") 	c #4C9AC1",
"! 	c #52A4CA",
"~ 	c #57ABD0",
"{ 	c #5DB1D4",
"] 	c #65B8DA",
"^ 	c #6EC2E1",
"/ 	c #72C4E3",
"( 	c #78C3E1",
"_ 	c #5D9EC0",
": 	c #275D8B",
"< 	c #35729F",
"[ 	c #3B84B1",
"} 	c #3D8FBC",
"| 	c #4298C3",
"1 	c #48A2CB",
"2 	c #51ACD3",
"3 	c #58B4D9",
"4 	c #5FBCDF",
"5 	c #67C3E4",
"6 	c #6CC6E6",
"7 	c #72C8E7",
"8 	c #79C8E5",
"9 	c #7CC4E0",
"0 	c #5B9ABD",
"a 	c #164B7A",
"b 	c #3474A1",
"c 	c #2F7BAC",
"d 	c #3081B2",
"e 	c #398EBC",
"f 	c #4099C4",
"g 	c #48A3CC",
"h 	c #50AED5",
"i 	c #54B5DB",
"j 	c #54BAE0",
"k 	c #53C0E5",
"l 	c #55C3E8",
"m 	c #5AC4E8",
"n 	c #66C4E5",
"o 	c #73C5E4",
"p 	c #7DC3E0",
"q 	c #528FB3",
"r 	c #2E6A97",
"s 	c #2976A8",
"t 	c #2877AA",
"u 	c #2F81B1",
"v 	c #388EBC",
"w 	c #3D98C4",
"x 	c #3B9ECA",
"y 	c #2FA0CF",
"z 	c #25A3D3",
"A 	c #20A9DA",
"B 	c #1FB2E2",
"C 	c #20B8E7",
"D 	c #20B5E5",
"E 	c #20ADDD",
"F 	c #24A7D7",
"G 	c #30A4D2",
"H 	c #4CA6CE",
"I 	c #32749F",
"J 	c #194E7E",
"K 	c #2C6D9C",
"L 	c #2071A5",
"M 	c #2676A9",
"N 	c #2E80B1",
"O 	c #318ABA",
"P 	c #288CBD",
"Q 	c #1D8FC1",
"R 	c #1996CA",
"S 	c #1A9FD1",
"T 	c #1DA8D9",
"U 	c #1EB2E2",
"V 	c #20B7E7",
"W 	c #1FB5E5",
"X 	c #1EACDD",
"Y 	c #1BA3D5",
"Z 	c #1C9CCE",
"` 	c #2B8AB8",
" .	c #216391",
"..	c #245A88",
"+.	c #296E9F",
"@.	c #1E6FA4",
"#.	c #2575A8",
"$.	c #277CAE",
"%.	c #1C7EB2",
"&.	c #1782B8",
"*.	c #178ABF",
"=.	c #1995C8",
"-.	c #1B9DD0",
";.	c #1CA5D6",
">.	c #1DADDE",
",.	c #1EB1E2",
"'.	c #1EB0E1",
").	c #1DA9DA",
"!.	c #1DA2D4",
"~.	c #2D99C7",
"{.	c #206392",
"].	c #285D8A",
"^.	c #276E9F",
"/.	c #1C6EA3",
"(.	c #1F70A5",
"_.	c #1670A6",
":.	c #1377AD",
"<.	c #157FB4",
"[.	c #1788BC",
"}.	c #1A92C5",
"|.	c #1D99CB",
"1.	c #20A0D1",
"2.	c #22A6D6",
"3.	c #1FA9D9",
"4.	c #1DA7D9",
"5.	c #1FA4D4",
"6.	c #2B96C4",
"7.	c #236A98",
"8.	c #255986",
"9.	c #286C9D",
"0.	c #196CA2",
"a.	c #156AA1",
"b.	c #116BA2",
"c.	c #1374AB",
"d.	c #187EB3",
"e.	c #2285B6",
"f.	c #2884B3",
"g.	c #2881AF",
"h.	c #2880AD",
"i.	c #2A83B0",
"j.	c #2A9DCB",
"k.	c #1CA1D3",
"l.	c #2A97C5",
"m.	c #2875A2",
"n.	c #2D6F9F",
"o.	c #1469A0",
"p.	c #11669E",
"q.	c #1169A0",
"r.	c #1772A8",
"s.	c #2875A5",
"t.	c #298DBB",
"u.	c #2A9CCA",
"v.	c #2974A1",
"w.	c #2F6794",
"x.	c #176AA0",
"y.	c #10669E",
"z.	c #10679F",
"A.	c #256FA1",
"B.	c #3484AF",
"C.	c #2C76A2",
"D.	c #236C9F",
"E.	c #1268A0",
"F.	c #2E6F9E",
"G.	c #26628F",
"H.	c #2B6694",
"I.	c #17699F",
"J.	c #1368A0",
"K.	c #2E6D9C",
"L.	c #256C9C",
"M.	c #2B6D9C",
"N.	c #2F6894",
"O.	c #216A9D",
"P.	c #266B9C",
"Q.	c #1B5181",
"R.	c #2E6490",
"S.	c #2F71A0",
"T.	c #2B6592",
"U.	c #33638E",
"V.	c #30628E",
"                                                ",
"                                                ",
"                                                ",
"                          .                     ",
"                          + @                   ",
"                # $ % & * = - ;                 ",
"          > , ' ) ! ~ { ] ^ / ( _               ",
"      : < [ } | 1 2 3 4 5 6 7 8 9 0             ",
"    a b c d e f g h i j k l m n o p q           ",
"    r s t u v w x y z A B C D E F G H I         ",
"  J K L M N O P Q R S T U V W X Y Z `  .        ",
"  ..+.@.#.$.%.&.*.=.-.;.>.,.'.).!.~.{.          ",
"  ].^./.(._.:.<.[.}.|.1.2.3.4.5.6.7.            ",
"  8.9.0.a.b.c.d.e.f.g.h.i.j.k.l.m.              ",
"    n.o.p.q.r.s.          t.u.v.                ",
"    w.x.y.z.A.            B.C.                  ",
"      D.y.E.F.            G.                    ",
"      H.I.J.K.                                  ",
"        L.o.M.                                  ",
"        N.O.P.Q.                                ",
"          R.S.T.                                ",
"            U.V.                                ",
"                                                ",
"                                                "};
